<?xml version="1.0" standalone="no"?>
<!DOCTYPE svg PUBLIC "-//W3C//DTD SVG 20010904//EN"
 "http://www.w3.org/TR/2001/REC-SVG-20010904/DTD/svg10.dtd">
<svg version="1.0" xmlns="http://www.w3.org/2000/svg"
 width="700.000000pt" height="700.000000pt" viewBox="0 0 700.000000 700.000000"
 preserveAspectRatio="xMidYMid meet">
<metadata>
Created by potrace 1.14, written by Peter Selinger 2001-2017
</metadata>
<g transform="translate(0.000000,700.000000) scale(0.100000,-0.100000)"
fill="#000000" stroke="none">
<path d="M3285 6409 c-691 -50 -1346 -351 -1845 -849 -1056 -1053 -1146 -2724
-209 -3890 107 -134 305 -331 437 -437 287 -231 651 -424 983 -523 542 -161
1094 -167 1632 -19 363 100 738 293 1047 540 445 355 802 887 965 1438 83 280
118 524 118 831 0 307 -35 551 -118 831 -49 167 -93 277 -186 465 -277 566
-749 1036 -1324 1319 -356 175 -701 268 -1100 295 -169 11 -229 11 -400 -1z
m380 -140 c271 -18 473 -57 715 -138 1287 -431 2075 -1732 1859 -3071 -93
-580 -364 -1107 -783 -1525 -744 -742 -1827 -997 -2831 -668 -115 38 -303 116
-383 160 -26 14 -76 41 -112 61 -356 194 -700 516 -947 887 -407 609 -550
1373 -396 2110 30 147 114 404 178 545 425 943 1332 1574 2355 1640 171 11
182 11 345 -1z"/>
<path d="M3305 6034 c-547 -59 -986 -232 -1380 -543 -93 -73 -290 -266 -375
-366 -398 -471 -611 -1095 -587 -1717 21 -537 198 -1025 529 -1461 86 -113
292 -323 413 -420 364 -294 780 -474 1250 -543 170 -26 514 -26 690 0 991 141
1801 834 2089 1789 34 111 63 248 88 402 16 107 17 523 0 640 -101 711 -448
1304 -1007 1722 -329 247 -726 412 -1138 474 -127 19 -476 33 -572 23z m-1202
-924 c148 -12 262 -43 394 -105 235 -111 438 -282 748 -630 249 -280 371 -386
528 -461 102 -48 187 -67 292 -67 163 1 290 47 515 188 354 222 401 248 567
314 189 75 530 178 543 164 30 -32 172 -454 158 -469 -4 -3 -67 1 -141 10
-170 20 -398 21 -536 0 -201 -29 -365 -79 -676 -204 -260 -105 -335 -122 -520
-123 -120 0 -168 4 -237 21 -179 44 -345 120 -610 280 -91 55 -203 119 -249
143 -238 119 -502 199 -799 240 -200 28 -598 13 -785 -31 -22 -5 -41 -7 -43
-6 -5 6 76 185 124 273 64 118 192 308 245 364 40 42 52 48 134 68 76 18 167
35 211 40 6 0 68 -4 137 -9z m547 -1294 c250 -47 430 -100 825 -243 457 -166
515 -177 905 -176 420 1 834 58 1353 186 l175 44 5 -61 c6 -65 -9 -345 -19
-355 -11 -11 -917 -5 -1079 7 -241 18 -456 41 -595 63 -263 42 -342 64 -930
268 -350 121 -610 179 -850 188 -189 7 -310 -12 -485 -73 -299 -105 -361 -125
-458 -144 -97 -19 -289 -40 -369 -40 l-38 0 0 106 0 106 38 -6 c20 -3 109 -8
197 -12 239 -10 343 9 619 110 149 55 224 66 411 61 112 -3 201 -12 295 -29z
m1795 -784 c382 -74 411 -77 745 -77 248 0 324 4 478 23 101 13 186 21 189 18
4 -3 -6 -53 -21 -110 l-28 -104 -116 -7 c-64 -4 -200 -5 -302 -2 -261 8 -375
30 -730 144 -351 112 -408 125 -610 130 -138 4 -194 2 -265 -11 -187 -35 -455
-145 -580 -239 -33 -24 -143 -122 -245 -217 -352 -328 -522 -444 -770 -526
-79 -26 -96 -28 -250 -28 -161 -1 -167 0 -260 32 -144 50 -166 65 -223 157
-102 162 -252 483 -235 501 4 3 33 -4 65 -16 32 -12 110 -35 173 -52 108 -29
128 -31 340 -36 195 -3 241 -1 346 17 152 25 360 94 625 204 334 140 545 200
884 251 17 2 143 3 280 1 l250 -2 260 -51z"/>
</g>
</svg>
