<svg width="120" height="120" viewBox="0 0 120 120" fill="none" xmlns="http://www.w3.org/2000/svg">
<path d="M7.79999 60.0051C7.79999 31.173 31.173 7.80005 60.005 7.80005V7.80005C88.837 7.80005 112.21 31.173 112.21 60.0051V60.0051C112.21 88.8371 88.837 112.21 60.005 112.21V112.21C31.173 112.21 7.79999 88.8371 7.79999 60.0051V60.0051Z" fill="white"/>
<path fill-rule="evenodd" clip-rule="evenodd" d="M57.5969 7.82129C51.6157 8.2675 47.8501 8.98496 43.1452 10.5745C37.6299 12.4377 31.9452 15.5624 27.2645 19.3032C25.0974 21.0353 21.0408 25.0896 19.3152 27.2481C13.9789 33.9233 10.3368 41.7445 8.7384 49.962C7.48695 56.3947 7.48726 63.7287 8.73886 70.0323C14.1705 97.3852 39.9781 115.659 67.5337 111.662C88.5489 108.615 105.686 93.0889 110.741 72.5176C111.786 68.2656 112.211 64.6488 112.21 60.0059C112.21 56.493 112.038 54.3434 111.51 51.2097C108.788 35.0746 98.4408 20.9766 83.8787 13.5637C76.5473 9.83161 69.3812 8.02228 61.1703 7.82986C59.6263 7.79374 58.0182 7.78991 57.5969 7.82129ZM33.8848 27.1627C40.8523 28.5813 47.0391 33.0009 54.9008 42.1754C57.167 44.8199 59.6454 47.3773 61.1204 48.5933C65.948 52.5732 70.5397 53.7726 75.5211 52.3545C77.6313 51.7538 80.2108 50.3857 84.3238 47.6856C89.5391 44.2616 92.1924 42.9715 97.9636 41.053C101.128 40.0011 105.585 38.7577 105.84 38.8557C106.25 39.0129 108.055 43.8575 108.915 47.1094L109.431 49.0611H109.067C108.867 49.0611 107.784 48.9261 106.66 48.7609C97.6002 47.4306 90.7771 48.4378 81.1687 52.5235C75.6907 54.853 73.4516 55.4109 69.6226 55.401C66.6933 55.3935 65.1455 55.1232 62.1756 54.1006C59.0066 53.0098 56.3219 51.6306 51.6138 48.6751C44.1786 44.0078 36.1562 41.4637 27.2645 40.9532C23.127 40.7157 18.0045 41.1232 14.0132 42.0072C13.297 42.1659 12.6985 42.2841 12.683 42.27C12.5935 42.1881 13.7357 39.5927 14.8577 37.3281C16.1521 34.7158 18.9866 30.2104 20.0123 29.1355C20.8037 28.306 24.0091 27.3361 27.7241 26.8023C28.7943 26.6485 32.3939 26.8591 33.8848 27.1627ZM40.3382 53.1269C45.6836 53.8248 52.1055 55.6689 61.1533 59.1038C66.638 61.1861 68.6974 61.6923 73.2993 62.0891C75.8682 62.3106 82.761 62.1811 85.8361 61.8537C92.9987 61.091 99.8178 59.8596 106.849 58.059C108.492 57.6382 109.991 57.259 110.181 57.2161L110.525 57.1384L110.517 60.2559C110.509 63.1983 110.359 65.6569 110.176 65.8397C110.131 65.8849 107.727 65.9908 104.833 66.0753C93.9624 66.3925 81.7789 65.7188 73.7589 64.3572C69.23 63.5883 66.4886 62.8264 60.5755 60.6937C57.5779 59.6125 53.9924 58.3731 52.6078 57.9394C45.8023 55.8079 40.4124 54.8845 35.9199 55.0804C32.4407 55.2323 30.1493 55.7396 26.8049 57.0983C21.4809 59.261 17.3041 60.194 12.268 60.3456L9.374 60.4327L9.48629 58.1528C9.54818 56.8988 9.61406 55.857 9.63275 55.8375C9.65159 55.818 10.3863 55.9534 11.2656 56.1383C13.4577 56.5994 19.3368 56.64 21.3665 56.2081C23.4962 55.755 25.2005 55.2346 26.944 54.5046C29.3058 53.5159 31.0324 53.0865 33.6986 52.8247C34.786 52.718 38.5019 52.887 40.3382 53.1269ZM74.8312 68.7855C75.8845 68.9597 77.9526 69.3471 79.4271 69.6464C86.1253 71.0064 88.9384 71.3124 94.7465 71.3127C99.2593 71.313 100.632 71.2196 105.886 70.5545C107.589 70.339 109.118 70.185 109.283 70.2123C109.572 70.2599 109.562 70.348 109.021 72.4814L108.457 74.701L107.232 74.7982C104.113 75.0457 99.171 75.1139 96.9678 74.9397C92.4074 74.5793 89.9146 74.0181 83.6719 71.9464C76.71 69.6361 74.6972 69.2161 70.5418 69.2061C67.629 69.1992 66.3273 69.3566 63.6965 70.0335C60.3945 70.8832 55.9392 72.8877 53.8158 74.4786C53.2528 74.9005 51.4998 76.4663 49.9204 77.9583C46.1676 81.5032 45.0589 82.4989 43.1201 84.0656C35.705 90.0577 29.0564 91.8321 22.3351 89.6129C20.8395 89.1191 18.5597 88.0211 17.7525 87.4059C16.6447 86.5616 13.6202 80.617 12.234 76.5592C11.9123 75.6176 11.9025 75.5177 12.1399 75.5928C12.2855 75.639 13.163 75.9636 14.0898 76.3141C15.9531 77.0187 18.3774 77.6818 20.6005 78.095C22.7082 78.4865 29.0417 78.4882 31.3597 78.0979C36.0587 77.3065 39.319 76.2125 47.1797 72.7891C50.9644 71.1408 56.7415 69.5488 61.6037 68.8141C64.4966 68.3769 64.456 68.3791 68.8567 68.4257C72.088 68.46 73.3071 68.5335 74.8312 68.7855Z" fill="black"/>
<path fill-rule="evenodd" clip-rule="evenodd" d="M10.3197 60.0061C10.3197 32.608 32.6081 10.3195 60.0041 10.3195C87.4022 10.3195 109.691 32.608 109.691 60.0061C109.691 87.4022 87.4022 109.691 60.0041 109.691C32.6081 109.691 10.3197 87.4022 10.3197 60.0061ZM7.79999 60.0061C7.79999 88.7914 31.2186 112.21 60.0041 112.21C88.7898 112.21 112.21 88.7914 112.21 60.0061C112.21 31.2203 88.7898 7.80005 60.0041 7.80005C31.2186 7.80005 7.79999 31.2203 7.79999 60.0061Z" fill="black"/>
<path fill-rule="evenodd" clip-rule="evenodd" d="M2.89589 60.0012C2.89589 28.5122 28.5123 2.89561 59.999 2.89561C91.488 2.89561 117.104 28.5122 117.104 60.0012C117.104 91.488 91.488 117.104 59.999 117.104C28.5123 117.104 2.89589 91.488 2.89589 60.0012ZM0 60.0012C0 93.0846 26.9154 120 59.999 120C93.0828 120 120 93.0846 120 60.0012C120 26.9172 93.0828 0 59.999 0C26.9154 0 0 26.9172 0 60.0012Z" fill="black"/>
</svg>
