<svg width="120" height="120" viewBox="0 0 120 120" fill="none" xmlns="http://www.w3.org/2000/svg">
<path d="M16.5 60.0042C16.5 35.9775 35.9775 16.5 60.0042 16.5V16.5C84.0308 16.5 103.508 35.9775 103.508 60.0042V60.0042C103.508 84.0309 84.0308 103.508 60.0042 103.508V103.508C35.9775 103.508 16.5 84.0309 16.5 60.0042V60.0042Z" fill="white"/>
<path fill-rule="evenodd" clip-rule="evenodd" d="M57.9974 16.5177C53.0131 16.8896 49.8751 17.4875 45.9543 18.8121C41.3583 20.3648 36.621 22.9687 32.7204 26.086C30.9145 27.5294 27.534 30.908 26.096 32.7067C21.6491 38.2694 18.614 44.7871 17.282 51.635C16.2391 56.9956 16.2394 63.1072 17.2824 68.3602C21.8088 91.1543 43.3151 106.382 66.2781 103.052C83.7907 100.512 98.0716 87.5741 102.284 70.4313C103.155 66.888 103.509 63.874 103.508 60.0049C103.508 57.0775 103.365 55.2862 102.925 52.6747C100.657 39.2288 92.034 27.4805 79.899 21.3031C73.7894 18.193 67.8177 16.6852 60.9753 16.5249C59.6886 16.4948 58.3485 16.4916 57.9974 16.5177ZM38.2373 32.6355C44.0436 33.8178 49.1992 37.5008 55.7507 45.1462C57.6392 47.3499 59.7045 49.4811 60.9336 50.4944C64.9567 53.811 68.7831 54.8105 72.9342 53.6288C74.6928 53.1282 76.8423 51.9881 80.2698 49.738C84.6159 46.8847 86.827 45.8096 91.6363 44.2109C94.2735 43.3343 97.9875 42.2981 98.2003 42.3797C98.542 42.5107 100.046 46.5479 100.762 49.2579L101.192 50.8843H100.889C100.723 50.8843 99.8201 50.7718 98.8832 50.6341C91.3335 49.5255 85.6476 50.3648 77.6406 53.7696C73.0756 55.7108 71.2097 56.1758 68.0189 56.1675C65.5777 56.1612 64.288 55.936 61.813 55.0839C59.1722 54.1748 56.9349 53.0255 53.0115 50.5626C46.8155 46.6732 40.1301 44.5531 32.7204 44.1277C29.2725 43.9297 25.0038 44.2693 21.6777 45.006C21.0808 45.1383 20.5821 45.2367 20.5692 45.225C20.4946 45.1567 21.4465 42.9939 22.3815 41.1068C23.4601 38.9298 25.8222 35.1753 26.6769 34.2796C27.3364 33.5883 30.0076 32.7801 33.1034 32.3353C33.9952 32.2071 36.9949 32.3826 38.2373 32.6355ZM43.6152 54.2724C48.0697 54.854 53.4213 56.3907 60.9611 59.2532C65.5316 60.9884 67.2478 61.4103 71.0828 61.7409C73.2235 61.9255 78.9675 61.8176 81.5301 61.5447C87.4989 60.9092 93.1815 59.883 99.0407 58.3825C100.41 58.0318 101.659 57.7158 101.817 57.6801L102.105 57.6153L102.098 60.2132C102.091 62.6652 101.966 64.7141 101.814 64.8664C101.776 64.9041 99.7724 64.9923 97.361 65.0627C88.302 65.3271 78.1491 64.7657 71.4657 63.631C67.6917 62.9903 65.4072 62.3554 60.4796 60.5781C57.9816 59.6771 54.9937 58.6442 53.8399 58.2828C48.1686 56.5065 43.677 55.7371 39.9333 55.9004C37.034 56.0269 35.1244 56.4497 32.3374 57.5819C27.9008 59.3842 24.4201 60.1617 20.2233 60.288L17.8117 60.3606L17.9053 58.4607C17.9568 57.4157 18.0117 56.5475 18.0273 56.5313C18.043 56.515 18.6553 56.6279 19.388 56.782C21.2148 57.1662 26.114 57.2 27.8054 56.8401C29.5802 56.4625 31.0004 56.0288 32.4533 55.4205C34.4215 54.5966 35.8604 54.2388 38.0822 54.0206C38.9883 53.9317 42.0849 54.0725 43.6152 54.2724ZM72.3594 67.3212C73.2371 67.4664 74.9605 67.7892 76.1892 68.0386C81.7711 69.172 84.1154 69.427 88.9554 69.4273C92.7161 69.4275 93.8598 69.3497 98.2383 68.7955C99.6578 68.6158 100.932 68.4875 101.069 68.5102C101.31 68.5499 101.302 68.6234 100.85 70.4012L100.381 72.2508L99.3598 72.3318C96.7612 72.5381 92.6425 72.5949 90.8065 72.4497C87.0061 72.1494 84.9288 71.6818 79.7266 69.9554C73.925 68.0301 72.2477 67.6801 68.7848 67.6718C66.3575 67.666 65.2727 67.7972 63.0804 68.3612C60.3288 69.0693 56.616 70.7398 54.8465 72.0655C54.3773 72.4171 52.9165 73.7219 51.6003 74.9652C48.473 77.9193 47.5491 78.7491 45.9334 80.0547C39.7542 85.0481 34.2137 86.5268 28.6126 84.6774C27.3663 84.2659 25.4664 83.3509 24.7938 82.8382C23.8706 82.1347 21.3502 77.1808 20.195 73.7993C19.9269 73.0147 19.9187 72.9314 20.1166 72.994C20.2379 73.0325 20.9691 73.303 21.7415 73.5951C23.2942 74.1823 25.3145 74.7349 27.1671 75.0791C28.9235 75.4054 34.2014 75.4068 36.1331 75.0816C40.049 74.4221 42.7658 73.5104 49.3164 70.6576C52.4703 69.284 57.2846 67.9574 61.3364 67.3451C63.7472 66.9808 63.7134 66.9825 67.3806 67.0215C70.0733 67.05 71.0893 67.1113 72.3594 67.3212Z" fill="black"/>
<path fill-rule="evenodd" clip-rule="evenodd" d="M18.5997 60.0051C18.5997 37.1734 37.1734 18.5996 60.0034 18.5996C82.8352 18.5996 101.409 37.1734 101.409 60.0051C101.409 82.8352 82.8352 101.409 60.0034 101.409C37.1734 101.409 18.5997 82.8352 18.5997 60.0051ZM16.5 60.0051C16.5 83.9928 36.0155 103.508 60.0034 103.508C83.9915 103.508 103.508 83.9928 103.508 60.0051C103.508 36.0169 83.9915 16.5 60.0034 16.5C36.0155 16.5 16.5 36.0169 16.5 60.0051Z" fill="black"/>
<path fill-rule="evenodd" clip-rule="evenodd" d="M12.4132 60.001C12.4132 33.7602 33.7603 12.413 59.9992 12.413C86.24 12.413 107.587 33.7602 107.587 60.001C107.587 86.24 86.24 107.587 59.9992 107.587C33.7603 107.587 12.4132 86.24 12.4132 60.001ZM10 60.001C10 87.5705 32.4295 110 59.9992 110C87.569 110 110 87.5705 110 60.001C110 32.431 87.569 10 59.9992 10C32.4295 10 10 32.431 10 60.001Z" fill="black"/>
</svg>
